<svg xmlns="http://www.w3.org/2000/svg" xmlns:xlink="http://www.w3.org/1999/xlink" viewBox="0 0 98.33 62.62"><defs><style>.cls-1{fill:none;}.cls-2{fill:#29a3ff;}.cls-3{clip-path:url(#clip-path);}</style><clipPath id="clip-path"><rect class="cls-1" x="1.5" y="1.5" width="95.33" height="59.62" rx="4.03"/></clipPath></defs><g id="Layer_2" data-name="Layer 2"><g id="Layer_1-2" data-name="Layer 1"><path class="cls-2" d="M92.8,62.62H5.53A5.54,5.54,0,0,1,0,57.09V5.53A5.54,5.54,0,0,1,5.53,0H92.8a5.54,5.54,0,0,1,5.53,5.53V57.09A5.54,5.54,0,0,1,92.8,62.62ZM5.53,3A2.54,2.54,0,0,0,3,5.53V57.09a2.53,2.53,0,0,0,2.53,2.53H92.8a2.53,2.53,0,0,0,2.53-2.53V5.53A2.54,2.54,0,0,0,92.8,3Z"/><g class="cls-3"><path class="cls-2" d="M96.83,58.7,67.22,32.08l-2.83-2.55,2.13-1.7L92.18,7.48l4.65-3.69V1.5H93.94L79.47,13,53.81,33.34,49.17,37,34.36,25.28,8.7,4.92,4.39,1.5H1.5V3.79L16.3,15.53l17.7,14L4.65,56,1.5,58.79v2.33H4.3L33.75,34.64c1-.93,2.08-1.86,3.11-2.8L42,35.89l5.93,4.7a1.88,1.88,0,0,0,2.55,0L61.52,31.8,91.21,58.5l2.92,2.62h2.7Z"/></g></g></g></svg>