<?xml version="1.0" encoding="utf-8"?>
<!-- Generator: Adobe Illustrator 27.3.1, SVG Export Plug-In . SVG Version: 6.00 Build 0)  -->
<svg version="1.1" id="Layer_1" xmlns="http://www.w3.org/2000/svg" xmlns:xlink="http://www.w3.org/1999/xlink" x="0px" y="0px"
	 viewBox="0 0 160 160" style="enable-background:new 0 0 160 160;" xml:space="preserve">
<style type="text/css">
	.st0{fill:#FCFCFC;}
	.st1{clip-path:url(#SVGID_00000054239082238021766830000002876835697306079153_);fill:#DBDBDB;}
</style>
<g>
	
		<image style="overflow:visible;opacity:0.35;" width="108" height="72" xlink:href="C2A03D87FF879C2B.png"  transform="matrix(1 0 0 1 26 44)">
	</image>
	<g>
		<g>
			<g>
				<defs>
					<path id="SVGID_1_" d="M123.6,48.2H36.4c-2.2,0-4,1.8-4,4v51.6c0,2.2,1.8,4,4,4h87.3c2.2,0,4-1.8,4-4V52.2
						C127.7,50,125.9,48.2,123.6,48.2z"/>
				</defs>
				<clipPath id="SVGID_00000016068370423613170650000016371561707328667308_">
					<use xlink:href="#SVGID_1_"  style="overflow:visible;"/>
				</clipPath>
			</g>
		</g>
		<g>
			<path class="st0" d="M123.6,48.2H36.4c-2.2,0-4,1.8-4,4v51.6c0,2.2,1.8,4,4,4h87.3c2.2,0,4-1.8,4-4V52.2
				C127.7,50,125.9,48.2,123.6,48.2z"/>
			<g>
				<defs>
					<path id="SVGID_00000109721784310546765870000011929729741299734921_" d="M123.6,48.2H36.4c-2.2,0-4,1.8-4,4v51.6
						c0,2.2,1.8,4,4,4h87.3c2.2,0,4-1.8,4-4V52.2C127.7,50,125.9,48.2,123.6,48.2z"/>
				</defs>
				<clipPath id="SVGID_00000181777753173708339580000012965045165301417645_">
					<use xlink:href="#SVGID_00000109721784310546765870000011929729741299734921_"  style="overflow:visible;"/>
				</clipPath>
				<path style="clip-path:url(#SVGID_00000181777753173708339580000012965045165301417645_);fill:#DBDBDB;" d="M127.7,105.4
					c-9.9-8.9-19.7-17.7-29.6-26.6c-0.9-0.8-1.9-1.7-2.8-2.5c0.7-0.6,1.4-1.1,2.1-1.7c8.6-6.8,17.1-13.6,25.7-20.4
					c1.5-1.2,3.1-2.5,4.6-3.7v-2.3h-2.9c-4.8,3.8-9.6,7.7-14.5,11.5c-8.6,6.8-17.1,13.6-25.7,20.4c-1.5,1.2-3.1,2.5-4.6,3.7
					c-4.9-3.9-9.9-7.8-14.8-11.7c-8.6-6.8-17.1-13.6-25.7-20.4c-1.4-1.1-2.9-2.3-4.3-3.4h-2.9v2.3c4.9,3.9,9.9,7.8,14.8,11.7
					c5.9,4.7,11.8,9.4,17.7,14c-9.8,8.8-19.6,17.6-29.3,26.4c-1.1,0.9-2.1,1.9-3.2,2.8v2.3h2.8c9.8-8.8,19.6-17.7,29.5-26.5
					c1-0.9,2.1-1.9,3.1-2.8c1.7,1.3,3.4,2.7,5.1,4c2,1.6,4,3.1,5.9,4.7c0.8,0.7,1.7,0.7,2.6,0c3.7-2.9,7.4-5.9,11.1-8.8
					c9.9,8.9,19.8,17.8,29.7,26.7c1,0.9,1.9,1.8,2.9,2.6h2.7V105.4z"/>
			</g>
		</g>
		<g>
			<g>
				<defs>
					<path id="SVGID_00000016762324550057852910000003398005701770046104_" d="M123.6,48.2H36.4c-2.2,0-4,1.8-4,4v51.6
						c0,2.2,1.8,4,4,4h87.3c2.2,0,4-1.8,4-4V52.2C127.7,50,125.9,48.2,123.6,48.2z"/>
				</defs>
				<clipPath id="SVGID_00000082358024707881823360000014767029547162245775_">
					<use xlink:href="#SVGID_00000016762324550057852910000003398005701770046104_"  style="overflow:visible;"/>
				</clipPath>
			</g>
		</g>
	</g>
</g>
</svg>
