<svg xmlns="http://www.w3.org/2000/svg" xmlns:xlink="http://www.w3.org/1999/xlink" viewBox="0 0 95.4 59.6"><defs><style>.cls-1{fill:none;}.cls-2{fill:#fcfcfc;}.cls-3{clip-path:url(#clip-path);}.cls-4{fill:#dbdbdb;}</style><clipPath id="clip-path" transform="translate(0.1)"><path class="cls-1" d="M91.2,0H4A4,4,0,0,0,0,4V55.6a4,4,0,0,0,4,4H91.3a4,4,0,0,0,4-4V4A4,4,0,0,0,91.2,0Z"/></clipPath></defs><g id="Layer_2" data-name="Layer 2"><g id="Layer_1-2" data-name="Layer 1"><path class="cls-2" d="M91.2,0H4A4,4,0,0,0,0,4V55.6a4,4,0,0,0,4,4H91.3a4,4,0,0,0,4-4V4A4,4,0,0,0,91.2,0Z" transform="translate(0.1)"/><g class="cls-3"><path class="cls-4" d="M95.3,57.2,65.7,30.6l-2.8-2.5c.7-.6,1.4-1.1,2.1-1.7C73.6,19.6,82.1,12.8,90.7,6l4.6-3.7V0H92.4c-4.8,3.8-9.6,7.7-14.5,11.5-8.6,6.8-17.1,13.6-25.7,20.4l-4.6,3.7c-4.9-3.9-9.9-7.8-14.8-11.7C24.2,17.1,15.7,10.3,7.1,3.5L2.8.1H-.1V2.4c4.9,3.9,9.9,7.8,14.8,11.7,5.9,4.7,11.8,9.4,17.7,14C22.6,36.9,12.8,45.7,3.1,54.5,2,55.4,1,56.4-.1,57.3v2.3H2.7c9.8-8.8,19.6-17.7,29.5-26.5l3.1-2.8c1.7,1.3,3.4,2.7,5.1,4,2,1.6,4,3.1,5.9,4.7a1.87,1.87,0,0,0,2.6,0c3.7-2.9,7.4-5.9,11.1-8.8L89.7,56.9c1,.9,1.9,1.8,2.9,2.6h2.7Z" transform="translate(0.1)"/></g></g></g></svg>