<svg xmlns="http://www.w3.org/2000/svg" viewBox="0 0 78.46 66.99"><defs><style>.cls-1{fill:#29a3ff;}</style></defs><g id="Layer_2" data-name="Layer 2"><g id="Layer_1-2" data-name="Layer 1"><path class="cls-1" d="M78.42,44.83c0-4.88,0-9.76,0-14.63,0-5.29,0-10.59,0-15.88A5.23,5.23,0,0,0,73.83,9,1.92,1.92,0,0,0,73.28,9H42.92l-1.7-4.13C40.06,2,38.15.08,35,0,31.48,0,27.94,0,24.42,0H9.17C7.9,0,6.62,0,5.34,0A5.27,5.27,0,0,0,0,5.44C0,11.69,0,18,0,24.21V54.85c0,2.28-.08,4.57,0,6.84a5.8,5.8,0,0,0,.33,2.19,4.46,4.46,0,0,0,3.3,2.81A5.67,5.67,0,0,0,5.23,67C5.8,67,6.38,67,7,67H73.28l.19,0a5,5,0,0,0,5-4.84c0-1.35,0-2.7,0-4C78.47,53.66,78.44,49.25,78.42,44.83ZM5.37,4c3.48-.17,7,0,10.48,0H34.7a3.23,3.23,0,0,1,1.16.11A3.35,3.35,0,0,1,37.5,6.15l2.19,5.31a2.06,2.06,0,0,0,1.9,1.45H73.26c1.21.06,1.18,1.13,1.18,2v7.44c-.21-.05-.44-.08-.66-.11a2.11,2.11,0,0,0-.52-.07H70.9C70.73,19.41,69,16.91,66,16.87c-1,0-2.07,0-3.1,0H12.6c-3.06,0-4.9,2.4-5.08,5.32H5.71A9.13,9.13,0,0,0,4,22.35V7C4,5.74,3.65,4.06,5.37,4ZM68.08,22.19H10.33c.09-1.1.58-2.39,1.82-2.5.22,0,.46,0,.68,0H65.29c.3,0,.62,0,.92,0C67.48,19.78,68,21.05,68.08,22.19ZM39.21,63H11.5c-1.46,0-2.93,0-4.39,0-.56,0-1.12,0-1.68,0H5.31C4.21,63,4,62.09,3.93,61.12q0-.57,0-1.14c0-.21,0-.42,0-.6V27.63c0-.87.09-1.42,1.2-1.5,1.59-.11,3.23,0,4.82,0H73.27c1,.05,1.15.54,1.18,1.18V59.84c0,.37,0,.79.06,1.2,0,1-.29,1.93-1.42,2h-.28c-6.37,0-12.74,0-19.11,0Z"/></g></g></svg>