<svg xmlns="http://www.w3.org/2000/svg" viewBox="0 0 79.16 67.02"><defs><style>.cls-1{fill:#00a9d1;}.cls-2{fill:#efefef;}.cls-3{fill:#00d6f5;}</style></defs><g id="Layer_2" data-name="Layer 2"><g id="Layer_1-2" data-name="Layer 1"><path class="cls-1" d="M75.81,9.5H42.12L39.58,3.35C38.46.85,37.05,0,35.2,0H3.35A3.35,3.35,0,0,0,0,3.35V63.67A3.35,3.35,0,0,0,3.35,67H75.81a3.35,3.35,0,0,0,3.35-3.35V12.85A3.35,3.35,0,0,0,75.81,9.5Z"/><path class="cls-2" d="M70.93,14.25H8.23A3.35,3.35,0,0,0,4.88,17.6V58.92a3.35,3.35,0,0,0,3.35,3.35H70.94a3.35,3.35,0,0,0,3.35-3.35V17.6A3.37,3.37,0,0,0,70.93,14.25Z"/><path class="cls-3" d="M75.81,17.51H3.35A3.35,3.35,0,0,0,0,20.86V63.67A3.35,3.35,0,0,0,3.35,67H75.81a3.35,3.35,0,0,0,3.35-3.35V20.86A3.35,3.35,0,0,0,75.81,17.51Z"/></g></g></svg>