<svg xmlns="http://www.w3.org/2000/svg" viewBox="0 0 337.62 262.88"><defs><style>.cls-1{fill:#4cc3f4;}.cls-1,.cls-2,.cls-3{fill-rule:evenodd;}.cls-2{fill:#0474bc;}.cls-3{fill:#50b0dc;}</style></defs><g id="Layer_2" data-name="Layer 2"><g id="svg"><g id="svgg"><path id="path0" class="cls-1" d="M17.8,45.6a7.57,7.57,0,0,0-5.14,2.26,9.18,9.18,0,0,1-2.52,1.38,3.33,3.33,0,0,0-2.5,2.35C6.14,55.44,2.18,57.84.85,55.7.08,54.45,0,63.53,0,155.86l0,97.39L1.22,255a7.23,7.23,0,0,0,2.18,2.19c.56.26,1,.63,1,.83s.84.35,1.86.34c1.93,0,3.53,1.11,2.49,1.75-.66.41-.09,2.39.62,2.13a.68.68,0,0,1,.81.2c.41.67,313.42.6,313.43-.07,0-.33.15-.29.43.11s.48.46.62.12.48-.37,1.22-.09a1.51,1.51,0,0,0,1.51,0c.27-.22.6-.29.75-.14s.26-.13.26-.61.17-.86.38-.86.34-.5.3-1.1c-.07-.95.08-1.12,1.12-1.21,2.89-.27,3-.36,3-2.42v-1.91l1.82.08c1.6.07,1.76,0,1.3-.54s-.39-.58.37-.34l.89.28V155.57c0-54-.13-98.32-.29-98.56a2.4,2.4,0,0,0-2.65-.49c-1.12.63-3.55-2.31-4.5-5.47a2.24,2.24,0,0,0-1.56-1.58,24.54,24.54,0,0,1-4-2.21l-2.77-1.81L171.05,45.4c-83,0-151.92.07-153.25.2"/><path id="path1" class="cls-2" d="M8,.23A5.56,5.56,0,0,1,6.22.54C4.68.66,4.66.68,4.54,2.42c-.14,2.12-.06,2-1.86,2.1-.8,0-1.46.22-1.46.41s-.15.27-.33.16c-.56-.35-.57,0-.73,24L0,52.31l2.23,0,2.23,0,1.08-2a6.6,6.6,0,0,1,2.28-2.55,15.9,15.9,0,0,0,2.91-2.17c1.63-1.51,1.88-1.6,5-1.84,7.46-.58,308.84,0,309.88.55a6.85,6.85,0,0,1,1.73,1.5,2.49,2.49,0,0,0,1.17.94c.93,0,3.1,2.08,3.94,3.78l.9,1.78,2.13-.06,2.14-.06,0-10.42c0-9.93-.2-12-1-12-2.81-.25-3.36-.63-3.36-2.38,0-1.19-.19-1.78-.63-2s-45.35-.24-100-.24H133.22V23.7c0-1.73-.61-2.46-2-2.43-.53,0-2,0-3.36-.12l-2.4-.13-.2-2c-.19-1.88-.26-2-1.4-2l-2.1-.1c-.81,0-.9-.25-.9-2v-2h-4l-.12-2.1c-.13-2.25,0-2.17-2.82-2.26l-1.5,0v-4h-4V2.74c0-1.25-.2-1.83-.77-2.19C106.88.08,8.44-.24,8,.23"/><path id="path2" class="cls-3" d="M14.15,43.94a5.16,5.16,0,0,0-3.4,1.75,16.41,16.41,0,0,1-2.93,2.18,6.74,6.74,0,0,0-2.29,2.56l-1.08,2-2.12-.06L.22,52.28l0,2.58c0,1.42,0,2.06.13,1.42.14-.85.28-1,.53-.62,1.35,2.18,5.29-.18,6.81-4.07a3.32,3.32,0,0,1,2.47-2.34,10,10,0,0,0,2.77-1.58c2.57-2.43-11.74-2.22,156.17-2.22H321.88l2.77,1.81a24.54,24.54,0,0,0,4,2.21,2.24,2.24,0,0,1,1.56,1.58c.95,3.16,3.38,6.1,4.5,5.47a2.4,2.4,0,0,1,2.65.49c.16.24.29-.69.3-2.06,0-2.71.07-2.64-2.62-2.55-1.55.06-1.67,0-2.53-1.75s-3-3.8-4-3.8a2.49,2.49,0,0,1-1.17-.94,6.85,6.85,0,0,0-1.73-1.5c-.92-.53-305.82-1-311.46-.47"/><path id="path3" class="cls-3" d="M14.15,43.94a5.16,5.16,0,0,0-3.4,1.75,16.41,16.41,0,0,1-2.93,2.18,6.74,6.74,0,0,0-2.29,2.56l-1.08,2-2.12-.06L.22,52.28l0,2.58c0,1.42,0,2.06.13,1.42.14-.85.28-1,.53-.62,1.35,2.18,5.29-.18,6.81-4.07a3.32,3.32,0,0,1,2.47-2.34,10,10,0,0,0,2.77-1.58c2.57-2.43-11.74-2.22,156.17-2.22H321.88l2.77,1.81a24.54,24.54,0,0,0,4,2.21,2.24,2.24,0,0,1,1.56,1.58c.95,3.16,3.38,6.1,4.5,5.47a2.4,2.4,0,0,1,2.65.49c.16.24.29-.69.3-2.06,0-2.71.07-2.64-2.62-2.55-1.55.06-1.67,0-2.53-1.75s-3-3.8-4-3.8a2.49,2.49,0,0,1-1.17-.94,6.85,6.85,0,0,0-1.73-1.5c-.92-.53-305.82-1-311.46-.47"/><path id="path4" class="cls-3" d="M14.15,43.94a5.16,5.16,0,0,0-3.4,1.75,16.41,16.41,0,0,1-2.93,2.18,6.74,6.74,0,0,0-2.29,2.56l-1.08,2-2.12-.06L.22,52.28l0,2.58c0,1.42,0,2.06.13,1.42.14-.85.28-1,.53-.62,1.35,2.18,5.29-.18,6.81-4.07a3.32,3.32,0,0,1,2.47-2.34,10,10,0,0,0,2.77-1.58c2.57-2.43-11.74-2.22,156.17-2.22H321.88l2.77,1.81a24.54,24.54,0,0,0,4,2.21,2.24,2.24,0,0,1,1.56,1.58c.95,3.16,3.38,6.1,4.5,5.47a2.4,2.4,0,0,1,2.65.49c.16.24.29-.69.3-2.06,0-2.71.07-2.64-2.62-2.55-1.55.06-1.67,0-2.53-1.75s-3-3.8-4-3.8a2.49,2.49,0,0,1-1.17-.94,6.85,6.85,0,0,0-1.73-1.5c-.92-.53-305.82-1-311.46-.47"/></g></g></g></svg>