<svg xmlns="http://www.w3.org/2000/svg" viewBox="0 0 69.02 69.02"><defs><style>.cls-1{fill:#006400;}.cls-2{fill:#00cc19;}</style></defs><g id="Layer_2" data-name="Layer 2"><g id="Layer_1-2" data-name="Layer 1"><circle class="cls-1" cx="34.51" cy="34.51" r="34.51"/><circle class="cls-2" cx="34.51" cy="34.51" r="33.51"/><path class="cls-1" d="M47.94,52.77H29.42a1.07,1.07,0,0,1-.76-1.83L39.79,39.81,50.92,28.68a1.07,1.07,0,0,1,1.83.76V48A4.79,4.79,0,0,1,47.94,52.77Z"/><path class="cls-1" d="M21.08,16.25H39.6a1.07,1.07,0,0,1,.76,1.83L29.22,29.22,18.08,40.36a1.07,1.07,0,0,1-1.83-.76V21.08A4.83,4.83,0,0,1,21.08,16.25Z"/></g></g></svg>