<svg xmlns="http://www.w3.org/2000/svg" viewBox="0 0 37.02 56.76"><defs><style>.cls-1{fill:#383838;}</style></defs><g id="Layer_2" data-name="Layer 2"><g id="Layer_1-2" data-name="Layer 1"><path class="cls-1" d="M10.76,56.76H1.58A1.58,1.58,0,0,1,0,55.18V1.58A1.58,1.58,0,0,1,1.58,0h9.18a1.58,1.58,0,0,1,1.58,1.58v53.6A1.58,1.58,0,0,1,10.76,56.76Z"/><path class="cls-1" d="M35.44,56.76H26.26a1.58,1.58,0,0,1-1.58-1.58V1.58A1.58,1.58,0,0,1,26.26,0h9.18A1.58,1.58,0,0,1,37,1.58v53.6A1.58,1.58,0,0,1,35.44,56.76Z"/></g></g></svg>