<svg xmlns="http://www.w3.org/2000/svg" viewBox="0 0 55.8 56.75"><defs><style>.cls-1{fill:#babcbe;}</style></defs><g id="Layer_2" data-name="Layer 2"><g id="Layer_1-2" data-name="Layer 1"><path class="cls-1" d="M8.69,27.14l22.48-13,22.48-13A1.43,1.43,0,0,1,55.8,2.42V54.34a1.43,1.43,0,0,1-2.15,1.24l-22.48-13-22.48-13A1.43,1.43,0,0,1,8.69,27.14Z"/><path class="cls-1" d="M1.78,0H4.66A1.78,1.78,0,0,1,6.44,1.78V55a1.78,1.78,0,0,1-1.78,1.78H1.78A1.78,1.78,0,0,1,0,55V1.78A1.77,1.77,0,0,1,1.78,0Z"/></g></g></svg>