<?xml version="1.0" encoding="utf-8"?>
<!-- Generator: Adobe Illustrator 25.4.0, SVG Export Plug-In . SVG Version: 6.00 Build 0)  -->
<svg version="1.1" id="Layer_1" xmlns="http://www.w3.org/2000/svg" xmlns:xlink="http://www.w3.org/1999/xlink" x="0px" y="0px"
	 viewBox="0 0 96.1 96.1" style="enable-background:new 0 0 96.1 96.1;" xml:space="preserve">
<style type="text/css">
	.st0{fill:#717171;}
</style>
<g id="Layer_2_00000096022149031517258420000012702120556618199946_">
	<g id="Layer_1-2">
		<path class="st0" d="M40,0C17.9,0,0,17.9,0,40s17.9,40,40,40c9.2,0,18.1-3.2,25.3-9l23.9,23.8c1.6,1.6,4.1,1.6,5.7,0
			c1.5-1.5,1.6-4,0.1-5.6l-0.1-0.1L71,65.3C85,48.2,82.4,23,65.3,9C58.2,3.2,49.2,0,40,0z M40,8c17.7,0,32,14.3,32,32S57.7,72,40,72
			S8,57.7,8,40C8,22.4,22.2,8,39.9,8C39.9,8,40,8,40,8z"/>
	</g>
</g>
</svg>
