<?xml version="1.0" encoding="UTF-8"?><svg id="Layer_1" xmlns="http://www.w3.org/2000/svg" viewBox="0 0 568.54 190.67"><defs><style>.cls-1{fill:#fc363b;}.cls-2{fill:#fd3a3f;}</style></defs><g><path class="cls-1" d="m246.6,54.71H68.42c-1.25,0-1.98,1.36-1.26,2.34l56.48,78.28c.63.86,1.97.84,2.56-.05l31.33-47.37c.61-.9,1.98-.9,2.59,0l32.19,47.31c.61.9,1.98.9,2.59,0l52.99-78.2c.67-.99-.07-2.3-1.29-2.3Z"/><path class="cls-2" d="m124.9,137.14c-.88,0-1.71-.41-2.22-1.11l-56.48-78.29c-.58-.8-.67-1.85-.22-2.73.46-.91,1.4-1.48,2.44-1.48h178.17c1.02,0,1.95.55,2.42,1.44.46.86.4,1.9-.15,2.7l-52.99,78.2c-.51.75-1.35,1.19-2.27,1.19h0c-.91,0-1.76-.44-2.27-1.19l-32.19-47.31c-.1-.14-.26-.16-.32-.16h0c-.06,0-.22.02-.32.16l-31.33,47.36c-.5.74-1.33,1.19-2.22,1.21h-.05Zm-56.48-81.26c-.22,0-.31.13-.34.19-.08.15,0,.25.03.28l56.48,78.29c.1.13.28.16.32.14.06,0,.22-.02.31-.16l31.33-47.36c.51-.76,1.35-1.2,2.27-1.21h0c.91,0,1.76.44,2.27,1.19l32.19,47.31c.1.14.26.16.32.16h0c.06,0,.22-.02.32-.16l52.99-78.2s.09-.14.02-.28c-.03-.06-.12-.19-.34-.19H68.42Z"/></g><g><path class="cls-1" d="m259.56,56.28v76.93c0,.84.65,1.53,1.46,1.53h33.41c.81,0,1.46-.68,1.46-1.53V56.28c0-.84-.65-1.53-1.46-1.53h-33.41c-.81,0-1.46.68-1.46,1.53Z"/><path class="cls-2" d="m294.43,135.96h-33.41c-1.46,0-2.64-1.24-2.64-2.75V56.28c0-1.52,1.18-2.75,2.64-2.75h33.41c1.46,0,2.64,1.23,2.64,2.75v76.93c0,1.52-1.18,2.75-2.64,2.75Zm-33.41-79.99c-.16,0-.29.14-.29.31v76.93c0,.17.13.31.29.31h33.41c.16,0,.29-.14.29-.31V56.28c0-.17-.13-.31-.29-.31h-33.41Z"/></g><g><path class="cls-1" d="m313.36,56.48v76.53c0,.95.69,1.71,1.53,1.71h98.5c.85,0,1.53-.77,1.53-1.71V56.48c0-.95-.69-1.71-1.53-1.71h-98.5c-.85,0-1.53.77-1.53,1.71Z"/><path class="cls-2" d="m413.4,135.96h-98.5c-1.49,0-2.71-1.32-2.71-2.95V56.48c0-1.63,1.22-2.95,2.71-2.95h98.5c1.49,0,2.71,1.32,2.71,2.95v76.53c0,1.63-1.22,2.95-2.71,2.95Zm-98.5-79.96c-.19,0-.36.22-.36.48v76.53c0,.26.16.48.36.48h98.5c.19,0,.36-.22.36-.48V56.48c0-.26-.16-.48-.36-.48h-98.5Z"/></g><g><ellipse class="cls-1" cx="464" cy="95.26" rx="37.66" ry="40.55"/><path class="cls-2" d="m464,136.99c-21.42,0-38.84-18.72-38.84-41.73s17.42-41.73,38.84-41.73,38.84,18.72,38.84,41.73-17.42,41.73-38.84,41.73Zm0-81.11c-20.12,0-36.49,17.67-36.49,39.38s16.37,39.38,36.49,39.38,36.49-17.67,36.49-39.38-16.37-39.38-36.49-39.38Z"/></g></svg>